<?xml version="1.0" encoding="UTF-8" standalone="no"?>
<svg
   viewBox="0 0 24 24"
   version="1.1"
   id="svg1"
   sodipodi:docname="variant-1.svg"
   xml:space="preserve"
   inkscape:version="1.3.2 (091e20e, 2023-11-25, custom)"
   xmlns:inkscape="http://www.inkscape.org/namespaces/inkscape"
   xmlns:sodipodi="http://sodipodi.sourceforge.net/DTD/sodipodi-0.dtd"
   xmlns="http://www.w3.org/2000/svg"
   xmlns:svg="http://www.w3.org/2000/svg"><defs
     id="defs1" /><sodipodi:namedview
     id="namedview1"
     pagecolor="#ffffff"
     bordercolor="#000000"
     borderopacity="0.25"
     inkscape:showpageshadow="2"
     inkscape:pageopacity="0.0"
     inkscape:pagecheckerboard="0"
     inkscape:deskcolor="#d1d1d1"
     inkscape:zoom="16.9375"
     inkscape:cx="2.4797048"
     inkscape:cy="15.02583"
     inkscape:window-width="1920"
     inkscape:window-height="1009"
     inkscape:window-x="-8"
     inkscape:window-y="-8"
     inkscape:window-maximized="1"
     inkscape:current-layer="svg1" /><path
     d="M15.5,2C13,2 11,4 11,6.5C11,9 13,11 15.5,11C16.4,11 17.2,10.7 17.9,10.3L21,13.4L22.4,12L19.3,8.9C19.7,8.2 20,7.4 20,6.5C20,4 18,2 15.5,2M4,4A2,2 0 0,0 2,6V20A2,2 0 0,0 4,22H18A2,2 0 0,0 20,20V15L18,13V20H4V6H9.03C9.09,5.3 9.26,4.65 9.5,4H4M15.5,4C16.9,4 18,5.1 18,6.5C18,7.9 16.9,9 15.5,9C14.1,9 13,7.9 13,6.5C13,5.1 14.1,4 15.5,4Z"
     id="path1"
     style="fill:#337ab7;fill-opacity:1" /><g
     id="g5"
     transform="translate(-1.6979432,-0.81483719)"
     style="fill:#337ab7;fill-opacity:1"><path
       d="m 15.576172,12.712891 a 1,1 0 0 0 -1,1 1,1 0 0 0 1,1 1,1 0 0 0 1,-1 1,1 0 0 0 -1,-1 z"
       id="path4"
       style="fill:#337ab7;fill-opacity:1" /><path
       d="m 9.5761719,12.712891 a 1,1 0 0 0 -1,1 1,1 0 0 0 1,1 1,1 0 0 0 1.0000001,-1 1,1 0 0 0 -1.0000001,-1 z"
       id="path3"
       style="fill:#337ab7;fill-opacity:1" /><path
       d="m 11.576172,15.712891 0.699219,1.390625 c -0.2,0.639999 -0.75922,1.109375 -1.449219,1.109375 a 1.5,1.5 0 0 1 -1.5000001,-1.5 h -0.5 a 2,2 0 0 0 2.0000001,2 c 0.749999,0 1.4,-0.410001 1.75,-1 0.35,0.589999 1.000001,1 1.75,1 a 2,2 0 0 0 2,-2 h -0.5 a 1.5,1.5 0 0 1 -1.5,1.5 c -0.689999,0 -1.251172,-0.469376 -1.451172,-1.109375 l 0.701172,-1.390625 z"
       id="path5"
       style="fill:#337ab7;fill-opacity:1" /></g></svg>
